HIERARCHY
ROOT Hips
{
    OFFSET 0.000000 0.000000 0.000000
    CHANNELS 6 Xposition Yposition Zposition Zrotation Xrotation Yrotation
        JOINT Chest
        {
            OFFSET -0.000000 31.935503 -0.000000
            CHANNELS 3 Zrotation Xrotation Yrotation
            JOINT Neck
            {
                OFFSET -0.000000 23.713140 0.000000
                CHANNELS 3 Zrotation Xrotation Yrotation
                JOINT Head
                {
                    OFFSET -0.000000 10.938888 0.000000
                    CHANNELS 3 Zrotation Xrotation Yrotation
                    End Site
                    {
                        OFFSET -0.000000 16.905556 0.000000
                    }
                }
            }
            JOINT LeftCollar
            {
                OFFSET -0.000000 23.713140 0.000000
                CHANNELS 3 Zrotation Xrotation Yrotation
                JOINT LeftShoulder
                {
                    OFFSET 19.888887 -0.000000 0.000000
                    CHANNELS 3 Zrotation Xrotation Yrotation
                    JOINT LeftElbow
                    {
                        OFFSET 23.906332 0.000000 0.000000
                        CHANNELS 3 Zrotation Xrotation Yrotation
                        JOINT LeftWrist
                        {
                            OFFSET 25.116924 0.000000 0.000000
                            CHANNELS 3 Zrotation Xrotation Yrotation
                            End Site
                            {
                                OFFSET 0.000000 -14.916667 0.000000
                            }
                        }
                    }
                }
            }
            JOINT RightCollar
            {
                OFFSET -0.000000 23.713140 0.000000
                CHANNELS 3 Zrotation Xrotation Yrotation
                JOINT RightShoulder
                {
                    OFFSET -19.888887 0.000000 0.000000
                    CHANNELS 3 Zrotation Xrotation Yrotation
                    JOINT RightElbow
                    {
                        OFFSET -23.906332 0.000000 0.000000
                        CHANNELS 3 Zrotation Xrotation Yrotation
                        JOINT RightWrist
                        {
                            OFFSET -25.116924 0.000000 0.000000
                            CHANNELS 3 Zrotation Xrotation Yrotation
                            End Site
                            {
                                OFFSET -0.000000 -14.916667 0.000000
                            }
                        }
                    }
                }
            }
        }
    JOINT LeftHip
    {
        OFFSET 11.933332 0.000000 0.000000
        CHANNELS 3 Zrotation Xrotation Yrotation
        JOINT LeftKnee
        {
            OFFSET -0.000000 -35.996647 0.000000
            CHANNELS 3 Zrotation Xrotation Yrotation
            JOINT LeftAnkle
            {
                OFFSET -0.000000 -39.788193 0.000000
                CHANNELS 3 Zrotation Xrotation Yrotation
                End Site
                {
                    OFFSET -0.000000 -4.972222 16.905556
                }
            }
        }
    }
    JOINT RightHip
    {
        OFFSET -11.933332 0.000000 0.000000
        CHANNELS 3 Zrotation Xrotation Yrotation
        JOINT RightKnee
        {
            OFFSET -0.000000 -35.996647 0.000000
            CHANNELS 3 Zrotation Xrotation Yrotation
            JOINT RightAnkle
            {
                OFFSET -0.000000 -39.788193 0.000000
                CHANNELS 3 Zrotation Xrotation Yrotation
                End Site
                {
                    OFFSET -0.000000 -4.972222 16.905556
                }
            }
        }
    }
}
MOTION
Frames:    6
Frame Time:    0.010000
10.787615    86.282166    -19.692335    -4.996727    1.735591    -56.018612    9.051993    14.202291    2.410421    8.457485    4.901781    8.551845    -18.790012    -13.619312    7.025863    -15.059006    1.134056    -8.415338    -35.708839    43.560471    -37.057335    19.596012    -10.089739    -54.277813    98.990997    11.968377    54.054863    9.514750    -1.075434    -12.536279    -5.898965    64.518471    81.460526    -15.130473    -7.101079    49.910702    -122.946251    10.231213    -32.703617    15.994476    -12.738572    7.540464    3.800866    31.033884    -25.052326    -8.246580    -14.645436    21.674414    2.365665    -0.663167    -3.263335    3.168370    20.126127    -13.769969    -8.119218    -14.680767    0.977780    
10.948294    86.298317    -19.411329    -4.883025    1.775519    -56.788681    8.946479    14.185287    2.282033    10.238350    4.072865    8.051992    -19.738073    -14.107982    5.929377    -14.705330    1.195138    -10.049494    -35.626656    43.872787    -37.006317    19.547649    -10.082282    -54.153358    98.856941    12.171134    54.563423    9.915315    -1.211871    -14.358864    -6.154157    64.197197    81.838440    -15.164505    -7.079772    50.064564    -123.709160    11.344212    -32.740669    15.973832    -12.660233    8.170770    3.741495    31.331934    -25.600121    -7.881464    -14.875075    22.185539    2.012690    -0.901252    -3.150486    3.119186    20.254139    -13.215438    -7.947387    -14.579515    1.101770    
11.084336    86.291061    -19.127270    -4.835865    1.816326    -57.453644    8.931042    14.337524    2.278993    10.381350    4.331589    8.382860    -20.107162    -14.379354    6.234657    -14.684975    1.255065    -10.033249    -35.548824    43.717422    -37.066303    19.466623    -10.039402    -54.163658    99.003822    11.833243    54.065365    9.835652    -1.226976    -14.170519    -5.102000    64.228363    80.970314    -15.003633    -6.981742    49.969597    -123.306435    10.716572    -32.450211    15.922890    -12.473229    8.250077    3.417037    31.477098    -25.074078    -6.647519    -14.547104    22.541977    1.740831    -0.979971    -3.080969    3.061698    20.237947    -12.910630    -7.885273    -14.548116    1.390017    
11.185438    86.296967    -18.917631    -4.772211    1.845207    -58.007927    8.883557    14.410431    2.291692    10.546091    4.517595    8.607421    -20.403114    -14.642021    6.390111    -14.669748    1.292549    -10.053218    -35.496128    43.644283    -37.089500    19.495647    -10.031184    -54.129559    98.939369    11.749718    54.077095    9.832801    -1.226258    -14.109689    -4.778303    64.234756    80.707840    -14.880208    -6.928086    50.013237    -123.406731    10.775480    -32.337788    15.903423    -12.361267    8.536489    3.259729    31.630798    -25.017866    -5.961462    -14.444283    22.861467    1.514996    -1.092864    -2.994332    3.015771    20.256590    -12.590834    -7.795961    -14.485414    1.541952    
11.297094    86.301453    -18.679035    -4.690955    1.880106    -58.658871    8.828010    14.490853    2.345843    10.738639    4.767643    8.858463    -20.773800    -14.975231    6.564013    -14.659117    1.325463    -10.074627    -35.451889    43.557011    -37.100266    19.456509    -10.036363    -54.103970    99.002808    11.703878    54.098557    9.827539    -1.196096    -14.038606    -4.419722    64.211029    80.427422    -14.762128    -6.885622    50.046448    -123.485443    10.800240    -32.213394    15.884229    -12.232703    8.892585    3.081341    31.799795    -24.941439    -5.223041    -14.327542    23.205448    1.260877    -1.234123    -2.873952    2.960881    20.274544    -12.230280    -7.699859    -14.407514    1.713763    
11.418065    86.303123    -18.415039    -4.593023    1.920054    -59.396919    8.765354    14.578985    2.445228    10.968000    5.082435    9.124366    -21.220804    -15.412741    6.728308    -14.656837    1.325057    -10.107555    -35.408318    43.486538    -37.095558    19.498810    -10.035471    -54.077015    98.963646    11.619079    54.146351    9.801376    -1.224885    -13.975430    -4.076297    64.236664    80.203308    -14.768982    -6.947065    49.993587    -123.422798    10.719168    -32.062553    15.861882    -12.090172    9.312743    2.889452    31.978445    -24.844358    -4.485192    -14.210375    23.555569    0.983326    -1.406150    -2.715483    2.899373    20.295013    -11.839176    -7.604568    -14.314878    1.900928    
